<?xml version="1.0" encoding="iso-8859-1"?>
<!-- Generator: Adobe Illustrator 19.0.0, SVG Export Plug-In . SVG Version: 6.00 Build 0)  -->
<svg version="1.1" id="Layer_1" xmlns="http://www.w3.org/2000/svg" xmlns:xlink="http://www.w3.org/1999/xlink" x="0px" y="0px"
	 viewBox="0 0 512 512" style="enable-background:new 0 0 512 512;" xml:space="preserve">
<rect x="28.313" y="260.719" style="fill:#BDC9D6;" width="455.373" height="247.742"/>
<rect x="28.313" y="251.281" style="fill:#7A8796;" width="455.373" height="31.853"/>
<g>
	<polyline style="fill:#54A6E2;" points="162.028,508.461 162.028,348.018 77.862,348.018 77.862,508.461 	"/>
	<polygon style="fill:#54A6E2;" points="512,260.719 0,260.719 21.235,29.493 490.765,29.493 	"/>
</g>
<g>
	<rect x="219.889" y="319.705" style="fill:#CDEFF7;" width="60.496" height="97.315"/>
	<rect x="347.688" y="319.705" style="fill:#CDEFF7;" width="60.496" height="97.315"/>
</g>
<g>
	<polygon style="fill:#7A8796;" points="71.963,508.461 83.76,508.461 83.76,353.917 156.129,353.917 156.129,508.461 
		167.927,508.461 167.927,342.12 71.963,342.12 	"/>
	<path style="fill:#7A8796;" d="M213.995,422.921h72.291V313.806h-72.291V422.921z M274.489,411.124h-18.451v-85.521h18.451V411.124
		z M225.792,325.604h18.45v85.521h-18.45L225.792,325.604L225.792,325.604z"/>
	<path style="fill:#7A8796;" d="M341.791,313.806v109.115h72.292V313.806H341.791z M353.588,325.604h18.451v85.521h-18.451V325.604z
		 M402.286,411.124h-18.451v-85.521h18.451V411.124z"/>
</g>
<polyline style="fill:#E54E5C;" points="422.345,120.335 422.345,3.539 359.819,3.539 359.819,120.335 "/>
<g>
</g>
<g>
</g>
<g>
</g>
<g>
</g>
<g>
</g>
<g>
</g>
<g>
</g>
<g>
</g>
<g>
</g>
<g>
</g>
<g>
</g>
<g>
</g>
<g>
</g>
<g>
</g>
<g>
</g>
</svg>
