<?xml version="1.0" encoding="iso-8859-1"?>
<!-- Generator: Adobe Illustrator 19.0.0, SVG Export Plug-In . SVG Version: 6.00 Build 0)  -->
<svg version="1.1" id="Layer_1" xmlns="http://www.w3.org/2000/svg" xmlns:xlink="http://www.w3.org/1999/xlink" x="0px" y="0px"
	 viewBox="0 0 512 512" style="enable-background:new 0 0 512 512;" xml:space="preserve">
<g>
	<polyline style="fill:#BACBD8;" points="232.524,214.642 232.524,107.2 279.476,107.2 279.476,214.642 	"/>
	<polyline style="fill:#BACBD8;" points="384.544,436.101 413.958,436.101 512,436.101 512,237.837 413.958,205.157 	"/>
</g>
<polyline style="fill:#54A6E2;" points="384.544,237.837 512,237.837 413.958,205.157 "/>
<polygon style="fill:#FEC95B;" points="413.952,165.934 413.952,436.099 228.056,436.099 254.148,183.82 256.003,165.934 
	334.983,75.899 "/>
<polygon style="fill:#54A6E2;" points="413.958,165.939 334.979,75.899 256,165.939 347.671,165.939 "/>
<g>
	<polyline style="fill:#CDEFF7;" points="445.548,436.101 445.548,364.546 482.587,364.546 482.587,436.101 	"/>
	<rect x="286.508" y="321.722" style="fill:#CDEFF7;" width="101.316" height="68.628"/>
	<rect x="286.508" y="214.962" style="fill:#CDEFF7;" width="101.316" height="68.628"/>
</g>
<polygon style="fill:#E2AD50;" points="413.952,165.109 413.952,171.044 254.148,171.044 256.003,165.109 "/>
<rect x="442.69" y="264.485" style="fill:#CDEFF7;" width="38.009" height="56.007"/>
<polyline style="fill:#BACBD8;" points="127.456,436.101 98.042,436.101 0,436.101 0,237.837 98.042,205.157 "/>
<polyline style="fill:#A7B9C4;" points="214.641,436.101 185.228,436.101 87.185,436.101 87.185,237.837 185.228,205.157 "/>
<polyline style="fill:#FD5D65;" points="127.456,237.837 0,237.837 98.042,205.157 "/>
<polygon style="fill:#63DBAF;" points="256.003,165.934 256.003,436.099 98.044,436.099 98.044,165.934 177.023,75.899 
	245.562,154.029 "/>
<polygon style="fill:#52C194;" points="256.003,165.934 256.003,436.099 244.824,436.099 244.824,165.934 245.562,154.029 "/>
<polygon style="fill:#FD5D65;" points="98.042,165.939 177.021,75.899 256,165.939 "/>
<g>
	<polyline style="fill:#CDEFF7;" points="66.452,436.101 66.452,364.546 29.413,364.546 29.413,436.101 	"/>
	<rect x="124.188" y="321.722" style="fill:#CDEFF7;" width="101.316" height="68.628"/>
	<rect x="124.188" y="214.962" style="fill:#CDEFF7;" width="101.316" height="68.628"/>
	<rect x="31.301" y="264.485" style="fill:#CDEFF7;" width="38.009" height="56.007"/>
</g>
<g>
	<polygon style="fill:#54A6E2;" points="71.482,436.101 61.421,436.101 61.421,369.577 34.444,369.577 34.444,436.101 
		24.383,436.101 24.383,359.516 71.482,359.516 	"/>
	<path style="fill:#54A6E2;" d="M74.341,325.529h-48.07v-66.075h48.07V325.529z M36.332,315.468h27.948v-45.953H36.332V315.468z"/>
</g>
<g>
	<polygon style="fill:#4F5E60;" points="487.619,436.101 477.557,436.101 477.557,369.577 450.58,369.577 450.58,436.101 
		440.519,436.101 440.519,359.516 487.619,359.516 	"/>
	<path style="fill:#4F5E60;" d="M119.156,395.378h111.372v-78.69H119.156V395.378z M129.217,349.627h21.531v35.691h-21.531V349.627z
		 M188.875,349.627v35.691h-28.066v-35.691H188.875z M160.809,339.566V326.75h28.066v12.816H160.809z M198.937,385.317v-35.691
		h21.531v35.691H198.937z M220.467,339.566h-21.531V326.75h21.531V339.566z M150.748,326.75v12.816h-21.531V326.75H150.748z"/>
	<path style="fill:#4F5E60;" d="M119.156,288.622h111.372v-78.69H119.156V288.622z M129.217,242.869h21.531v35.692h-21.531V242.869z
		 M188.875,242.869v35.692h-28.066v-35.692H188.875z M160.809,232.808v-12.816h28.066v12.816H160.809z M198.937,278.56v-35.692
		h21.531v35.692H198.937z M220.467,232.808h-21.531v-12.816h21.531V232.808z M150.748,219.992v12.816h-21.531v-12.816H150.748z"/>
</g>
<g>
	<path style="fill:#FD5D65;" d="M281.471,395.378h111.371v-78.69H281.471V395.378z M291.533,349.627h21.531v35.691h-21.531V349.627z
		 M351.192,349.627v35.691h-28.066v-35.691H351.192z M323.125,339.566V326.75h28.066v12.816H323.125z M361.253,385.317v-35.691
		h21.53v35.691H361.253z M382.781,339.566h-21.53V326.75h21.53V339.566z M313.063,326.75v12.816h-21.531V326.75H313.063z"/>
	<path style="fill:#FD5D65;" d="M281.471,209.931v78.691h111.371v-78.691H281.471z M382.781,232.808h-21.53v-12.816h21.53V232.808z
		 M323.125,232.808v-12.816h28.066v12.816H323.125z M351.192,242.869v35.692h-28.066v-35.692H351.192z M313.063,219.992v12.816
		h-21.531v-12.816H313.063z M291.533,242.869h21.531v35.692h-21.531V242.869z M361.253,278.56v-35.692h21.53v35.692H361.253z"/>
</g>
<path style="fill:#4F5E60;" d="M485.729,325.529h-48.07v-66.075h48.07V325.529z M447.721,315.468h27.948v-45.953h-27.948V315.468z"
	/>
<rect x="98.04" y="165.103" style="fill:#52C194;" width="157.96" height="5.934"/>
<g>
</g>
<g>
</g>
<g>
</g>
<g>
</g>
<g>
</g>
<g>
</g>
<g>
</g>
<g>
</g>
<g>
</g>
<g>
</g>
<g>
</g>
<g>
</g>
<g>
</g>
<g>
</g>
<g>
</g>
</svg>
